<svg width="512" height="512" viewBox="0 0 512 512" fill="none" xmlns="http://www.w3.org/2000/svg">
  <!-- Background -->
  <rect width="512" height="512" rx="64" fill="#2563eb"/>
  
  <!-- Scale Icon -->
  <g transform="translate(128, 128) scale(4, 4)">
    <!-- Left scale -->
    <path d="m16 16 3-8 3 8c-.87.65-1.92 1-3 1s-2.13-.35-3-1Z" fill="white"/>
    <!-- Right scale -->
    <path d="m2 16 3-8 3 8c-.87.65-1.92 1-3 1s-2.13-.35-3-1Z" fill="white"/>
    <!-- Base -->
    <path d="M7 21h10" stroke="white" stroke-width="2" stroke-linecap="round"/>
    <!-- Center pole -->
    <path d="M12 3v18" stroke="white" stroke-width="2" stroke-linecap="round"/>
    <!-- Top bar -->
    <path d="M3 7h2c2 0 5-1 7-2 2 1 5 2 7 2h2" stroke="white" stroke-width="2" stroke-linecap="round"/>
  </g>
  
  <!-- Singapore flag accent -->
  <rect x="32" y="32" width="64" height="32" rx="4" fill="#FF0000"/>
  <rect x="32" y="64" width="64" height="32" rx="4" fill="white"/>
</svg>
